<?xml version="1.0" standalone="no"?>
<!DOCTYPE svg PUBLIC "-//W3C//DTD SVG 20010904//EN"
 "http://www.w3.org/TR/2001/REC-SVG-20010904/DTD/svg10.dtd">
<svg version="1.0" xmlns="http://www.w3.org/2000/svg"
 width="50.000000pt" height="50.000000pt" viewBox="0 0 50.000000 50.000000"
 preserveAspectRatio="xMidYMid meet">
<metadata>
Created by potrace 1.10, written by Peter Selinger 2001-2011
</metadata>
<g transform="translate(0.000000,50.000000) scale(0.100000,-0.100000)"
fill="#000000" stroke="none">
<path d="M22 478 c-17 -17 -17 -439 0 -456 18 -18 262 -17 277 2 18 22 10 151
-9 151 -11 0 -16 -15 -18 -62 l-3 -63 -109 0 -110 0 0 200 0 200 110 0 109 0
3 -62 c2 -48 7 -63 18 -63 19 0 27 129 9 151 -15 19 -259 20 -277 2z"/>
<path d="M334 349 c-6 -10 49 -65 71 -71 6 -1 -46 -5 -115 -8 -102 -4 -125 -8
-125 -20 0 -12 22 -16 122 -20 l121 -5 -39 -29 c-41 -31 -46 -40 -29 -51 11
-7 150 91 150 105 0 8 -133 110 -143 110 -3 0 -9 -5 -13 -11z"/>
</g>
</svg>
