<?xml version="1.0" standalone="no"?>
<!DOCTYPE svg PUBLIC "-//W3C//DTD SVG 20010904//EN"
 "http://www.w3.org/TR/2001/REC-SVG-20010904/DTD/svg10.dtd">
<svg version="1.0" xmlns="http://www.w3.org/2000/svg"
 width="50.000000pt" height="50.000000pt" viewBox="0 0 50.000000 50.000000"
 preserveAspectRatio="xMidYMid meet">
<metadata>
Created by potrace 1.10, written by Peter Selinger 2001-2011
</metadata>
<g transform="translate(0.000000,50.000000) scale(0.100000,-0.100000)"
fill="#000000" stroke="none">
<path d="M227 484 c-4 -4 -7 -51 -7 -105 l0 -98 -102 -3 c-102 -3 -103 -3
-103 -28 0 -25 1 -25 102 -28 l102 -3 3 -102 c3 -101 3 -102 28 -102 25 0 25
1 28 102 l3 102 102 3 c101 3 102 3 102 28 0 25 -1 25 -102 28 l-102 3 -3 102
c-3 94 -5 102 -23 105 -12 2 -24 0 -28 -4z"/>
</g>
</svg>
